<svg xmlns="http://www.w3.org/2000/svg" viewBox="0 0 48 48"><defs><linearGradient id="a" x1="24" x2="24" y1="42.45" y2="4.55" gradientUnits="userSpaceOnUse"><stop offset="0" stop-color="#12c2e9"/><stop offset="1" stop-color="#c471ed"/></linearGradient></defs><path fill="url(#a)" d="M7.31,9.67a.53.53,0,0,1-.24-.06.5.5,0,0,1-.2-.68l.24-.45A.5.5,0,0,1,8,9l-.24.45A.51.51,0,0,1,7.31,9.67Zm-1.46.44a.5.5,0,0,0,.24-.94l-.45-.25A.5.5,0,0,0,5,9.13a.49.49,0,0,0,.2.67l.45.25A.53.53,0,0,0,5.85,10.11Zm.67.52a.49.49,0,0,0-.67.2l-.25.45a.5.5,0,0,0,.21.68A.46.46,0,0,0,6,12a.51.51,0,0,0,.44-.26l.25-.46A.49.49,0,0,0,6.52,10.63Zm1.92-.2L8,10.19a.49.49,0,0,0-.67.2.5.5,0,0,0,.2.68l.45.24a.53.53,0,0,0,.24.06.49.49,0,0,0,.44-.26A.51.51,0,0,0,8.44,10.43Zm16.74,29a.5.5,0,1,0-.71.71l.31.31a.5.5,0,0,0,.35.15.51.51,0,0,0,.36-.15.51.51,0,0,0,0-.71ZM24.78,41l-.31.31a.5.5,0,0,0,.35.85.51.51,0,0,0,.36-.15l.31-.31a.5.5,0,0,0,0-.7A.5.5,0,0,0,24.78,41Zm2,0a.5.5,0,0,0-.71,0,.5.5,0,0,0,0,.7l.32.31a.47.47,0,0,0,.35.15.5.5,0,0,0,.35-.85Zm-.4-1.62-.31.31a.51.51,0,0,0,0,.71.51.51,0,0,0,.36.15.49.49,0,0,0,.35-.15l.31-.31a.5.5,0,0,0,0-.71A.51.51,0,0,0,26.39,39.4ZM23.83,4.55A1.12,1.12,0,1,0,25,5.67,1.12,1.12,0,0,0,23.83,4.55ZM8,25.77a.95.95,0,1,0,0,1.89.95.95,0,0,0,0-1.89ZM43.1,12V34.76a1.5,1.5,0,0,1-1.5,1.5H39.35v4.57a1.55,1.55,0,0,1-1.46,1.62h-.27a1.49,1.49,0,0,1-1.41-1.26l-1-4.93H21.27a.55.55,0,0,1-.17.05H21l-.07,0h-.42l-1,4.93a1.5,1.5,0,0,1-1.42,1.26H17.8a1.55,1.55,0,0,1-1.45-1.62V36.26H14.06a1.5,1.5,0,0,1-1.5-1.5V12a1.5,1.5,0,0,1,1.5-1.5H41.6A1.5,1.5,0,0,1,43.1,12ZM19.46,36.26h-.15a.36.36,0,0,1-.11,0l-.13,0,0,0H17.35v4.57c0,.34.2.62.45.62h.27c.2,0,.38-.19.44-.46ZM24,24.33H13.56V34.76a.5.5,0,0,0,.5.5h1l2.23-8.07a.5.5,0,0,1,1,.26l-2.16,7.81h.87l2.22-8.06a.51.51,0,0,1,.62-.34.49.49,0,0,1,.35.61L18,35.26h.87l2.23-8a.5.5,0,0,1,.61-.35.51.51,0,0,1,.35.62l-2.15,7.77h.87l2.22-8a.49.49,0,0,1,.61-.35.51.51,0,0,1,.35.62l-2.15,7.75H24Zm0-12.85H14.06a.5.5,0,0,0-.5.5V23.33h2.36l-2.18-7.88a.5.5,0,1,1,1-.27l2.21,8a.44.44,0,0,1,0,.16h.9L15.64,15.4a.49.49,0,0,1,.34-.61.5.5,0,0,1,.62.35l2.21,8a.46.46,0,0,1,0,.2h.91l-2.2-8a.48.48,0,0,1,.35-.61.49.49,0,0,1,.61.34l2.21,8a.53.53,0,0,1,0,.25h.95l0,0-2.21-8a.5.5,0,0,1,1-.27l2.21,8a.57.57,0,0,1,0,.29H24ZM38.35,36.26H36.23l1,4.73a.51.51,0,0,0,.43.46h.27c.25,0,.46-.28.46-.62ZM42.1,24.33H25V35.26H41.6a.5.5,0,0,0,.5-.5ZM42.1,12a.5.5,0,0,0-.5-.5H25V23.33H42.1ZM34,18.26l.49-.85L34,16.56h-1l-.49.85.49.85ZM33.06,29l-.49.85.49.85h1l.49-.85L34,29Z" data-name="furniture"/></svg>